<svg width="33" height="40" viewBox="0 0 33 40" fill="none" xmlns="http://www.w3.org/2000/svg">
<path d="M1.5625 40H31.25C32.1129 40 32.8125 39.3004 32.8125 38.4375V12.1875L20.625 0H1.5625C0.699555 0 0 0.699555 0 1.5625V38.4375C0 39.3004 0.699555 40 1.5625 40Z" fill="#F97316"/>
<path d="M15.8484 34.7249H7.14844C6.09844 34.7249 5.27344 33.8999 5.27344 32.8499V30.3749C5.27344 29.9999 5.57344 29.7749 5.87344 29.7749C6.17344 29.7749 6.47344 30.0749 6.47344 30.3749V32.8499C6.47344 33.2249 6.77344 33.4499 7.07344 33.4499H15.8484C16.2234 33.4499 16.4484 33.1499 16.4484 32.8499V30.3749C16.4484 29.9999 16.7484 29.7749 17.0484 29.7749C17.3484 29.7749 17.6484 30.0749 17.6484 30.3749V32.8499C17.7234 33.8999 16.8984 34.7249 15.8484 34.7249ZM15.0984 26.7749C14.8734 26.5499 14.4234 26.5499 14.1984 26.7749L12.0984 28.8749V22.8749C12.0984 22.4999 11.7984 22.2749 11.4984 22.2749C11.1984 22.2749 10.8984 22.4999 10.8984 22.8749V28.8749L8.79844 26.7749C8.57344 26.5499 8.19844 26.5499 7.89844 26.7749C7.67344 26.9999 7.67344 27.4499 7.89844 27.6749L11.0484 30.8249C11.1234 30.8999 11.1984 30.8999 11.2734 30.9749C11.3484 30.9749 11.4234 31.0499 11.4984 31.0499C11.5734 31.0499 11.6484 31.0499 11.7234 30.9749C11.7984 30.9749 11.8734 30.8999 11.9484 30.8249L15.0984 27.6749C15.3234 27.4499 15.3234 27.0749 15.0984 26.7749Z" fill="white"/>
<path d="M22.1831 12.1875H32.8125L20.625 0V10.6294C20.625 11.4899 21.3226 12.1875 22.1831 12.1875Z" fill="white" fill-opacity="0.6"/>
<path d="M32.8125 12.1875H22.0313L32.8125 22.9688V12.1875Z" fill="black" fill-opacity="0.3"/>
</svg>
